<svg width="1020" height="288" viewBox="0 0 1020 288" fill="none" xmlns="http://www.w3.org/2000/svg">
<rect width="1020" height="288" rx="24" fill="url(#paint0_linear_1408_364)"/>
<path d="M267.72 67.45V145H246.16V67.45H267.72ZM322.368 82.74C329.481 82.74 335.128 85.1233 339.308 89.89C343.488 94.5833 345.578 100.963 345.578 109.03V145H324.018V111.89C324.018 108.37 323.101 105.62 321.268 103.64C319.435 101.587 316.978 100.56 313.898 100.56C310.671 100.56 308.141 101.587 306.308 103.64C304.475 105.62 303.558 108.37 303.558 111.89V145H281.998V83.29H303.558V92.09C305.465 89.3033 308.031 87.0667 311.258 85.38C314.485 83.62 318.188 82.74 322.368 82.74ZM392.738 101.22H383.058V145H361.388V101.22H354.678V83.29H361.388V82.74C361.388 74.82 363.698 68.77 368.318 64.59C373.011 60.3367 379.721 58.21 388.448 58.21C390.208 58.21 391.565 58.2467 392.518 58.32V76.69C391.931 76.6167 391.125 76.58 390.098 76.58C387.751 76.58 386.028 77.13 384.928 78.23C383.828 79.2567 383.205 80.9433 383.058 83.29H392.738V101.22ZM461.403 113.43C461.403 115.117 461.293 116.803 461.073 118.49H420.263C420.483 121.863 421.4 124.393 423.013 126.08C424.7 127.693 426.827 128.5 429.393 128.5C432.987 128.5 435.553 126.887 437.093 123.66H460.083C459.13 127.913 457.26 131.727 454.473 135.1C451.76 138.4 448.313 141.003 444.133 142.91C439.953 144.817 435.333 145.77 430.273 145.77C424.187 145.77 418.76 144.487 413.993 141.92C409.3 139.353 405.597 135.687 402.883 130.92C400.243 126.153 398.923 120.543 398.923 114.09C398.923 107.637 400.243 102.063 402.883 97.37C405.523 92.6033 409.19 88.9367 413.883 86.37C418.65 83.8033 424.113 82.52 430.273 82.52C436.36 82.52 441.75 83.7667 446.443 86.26C451.137 88.7533 454.803 92.3467 457.443 97.04C460.083 101.66 461.403 107.123 461.403 113.43ZM439.403 108.04C439.403 105.4 438.523 103.347 436.763 101.88C435.003 100.34 432.803 99.57 430.163 99.57C427.523 99.57 425.36 100.303 423.673 101.77C421.987 103.163 420.887 105.253 420.373 108.04H439.403ZM493.786 94.18C496.206 90.66 499.14 87.8733 502.586 85.82C506.033 83.7667 509.736 82.74 513.696 82.74V105.73H507.646C502.953 105.73 499.47 106.647 497.196 108.48C494.923 110.313 493.786 113.503 493.786 118.05V145H472.226V83.29H493.786V94.18ZM582.386 113.43C582.386 115.117 582.276 116.803 582.056 118.49H541.246C541.466 121.863 542.382 124.393 543.996 126.08C545.682 127.693 547.809 128.5 550.376 128.5C553.969 128.5 556.536 126.887 558.076 123.66H581.066C580.112 127.913 578.242 131.727 575.456 135.1C572.742 138.4 569.296 141.003 565.116 142.91C560.936 144.817 556.316 145.77 551.256 145.77C545.169 145.77 539.742 144.487 534.976 141.92C530.282 139.353 526.579 135.687 523.866 130.92C521.226 126.153 519.906 120.543 519.906 114.09C519.906 107.637 521.226 102.063 523.866 97.37C526.506 92.6033 530.172 88.9367 534.866 86.37C539.632 83.8033 545.096 82.52 551.256 82.52C557.342 82.52 562.732 83.7667 567.426 86.26C572.119 88.7533 575.786 92.3467 578.426 97.04C581.066 101.66 582.386 107.123 582.386 113.43ZM560.386 108.04C560.386 105.4 559.506 103.347 557.746 101.88C555.986 100.34 553.786 99.57 551.146 99.57C548.506 99.57 546.342 100.303 544.656 101.77C542.969 103.163 541.869 105.253 541.356 108.04H560.386ZM633.579 82.74C640.692 82.74 646.339 85.1233 650.519 89.89C654.699 94.5833 656.789 100.963 656.789 109.03V145H635.229V111.89C635.229 108.37 634.312 105.62 632.479 103.64C630.645 101.587 628.189 100.56 625.109 100.56C621.882 100.56 619.352 101.587 617.519 103.64C615.685 105.62 614.769 108.37 614.769 111.89V145H593.209V83.29H614.769V92.09C616.675 89.3033 619.242 87.0667 622.469 85.38C625.695 83.62 629.399 82.74 633.579 82.74ZM667.099 114.09C667.099 107.71 668.419 102.137 671.059 97.37C673.699 92.6033 677.366 88.9367 682.059 86.37C686.826 83.8033 692.252 82.52 698.339 82.52C706.186 82.52 712.786 84.6833 718.139 89.01C723.492 93.2633 726.939 99.24 728.479 106.94H705.599C704.279 102.907 701.712 100.89 697.899 100.89C695.186 100.89 693.022 102.027 691.409 104.3C689.869 106.5 689.099 109.763 689.099 114.09C689.099 118.417 689.869 121.717 691.409 123.99C693.022 126.263 695.186 127.4 697.899 127.4C701.786 127.4 704.352 125.383 705.599 121.35H728.479C726.939 128.977 723.492 134.953 718.139 139.28C712.786 143.607 706.186 145.77 698.339 145.77C692.252 145.77 686.826 144.487 682.059 141.92C677.366 139.353 673.699 135.687 671.059 130.92C668.419 126.153 667.099 120.543 667.099 114.09ZM798.395 113.43C798.395 115.117 798.285 116.803 798.065 118.49H757.255C757.475 121.863 758.392 124.393 760.005 126.08C761.692 127.693 763.819 128.5 766.385 128.5C769.979 128.5 772.545 126.887 774.085 123.66H797.075C796.122 127.913 794.252 131.727 791.465 135.1C788.752 138.4 785.305 141.003 781.125 142.91C776.945 144.817 772.325 145.77 767.265 145.77C761.179 145.77 755.752 144.487 750.985 141.92C746.292 139.353 742.589 135.687 739.875 130.92C737.235 126.153 735.915 120.543 735.915 114.09C735.915 107.637 737.235 102.063 739.875 97.37C742.515 92.6033 746.182 88.9367 750.875 86.37C755.642 83.8033 761.105 82.52 767.265 82.52C773.352 82.52 778.742 83.7667 783.435 86.26C788.129 88.7533 791.795 92.3467 794.435 97.04C797.075 101.66 798.395 107.123 798.395 113.43ZM776.395 108.04C776.395 105.4 775.515 103.347 773.755 101.88C771.995 100.34 769.795 99.57 767.155 99.57C764.515 99.57 762.352 100.303 760.665 101.77C758.979 103.163 757.879 105.253 757.365 108.04H776.395ZM839.909 67.45C848.049 67.45 855.162 69.1 861.249 72.4C867.409 75.6267 872.139 80.1733 875.439 86.04C878.739 91.9067 880.389 98.6167 880.389 106.17C880.389 113.65 878.702 120.323 875.329 126.19C872.029 132.057 867.299 136.677 861.139 140.05C855.052 143.35 847.975 145 839.909 145H809.219V67.45H839.909ZM838.259 125.97C844.565 125.97 849.515 124.247 853.109 120.8C856.702 117.353 858.499 112.477 858.499 106.17C858.499 99.79 856.702 94.8767 853.109 91.43C849.515 87.91 844.565 86.15 838.259 86.15H830.779V125.97H838.259ZM941.607 105.18C946.154 106.207 949.747 108.48 952.387 112C955.101 115.447 956.457 119.407 956.457 123.88C956.457 130.48 954.184 135.65 949.637 139.39C945.091 143.13 938.711 145 930.497 145H892.107V67.45H929.287C937.207 67.45 943.404 69.21 947.877 72.73C952.424 76.25 954.697 81.2 954.697 87.58C954.697 92.1267 953.487 95.94 951.067 99.02C948.721 102.027 945.567 104.08 941.607 105.18ZM913.667 98.25H924.557C929.984 98.25 932.697 96.0133 932.697 91.54C932.697 86.92 929.984 84.61 924.557 84.61H913.667V98.25ZM926.207 127.62C931.634 127.62 934.347 125.347 934.347 120.8C934.347 118.453 933.614 116.657 932.147 115.41C930.754 114.163 928.737 113.54 926.097 113.54H913.667V127.62H926.207Z" fill="#FBFBFB"/>
<path d="M256.94 205.028C258.729 205.351 260.225 206.231 261.428 207.668C262.66 209.105 263.276 210.792 263.276 212.728C263.276 214.312 262.895 215.735 262.132 216.996C261.399 218.228 260.284 219.211 258.788 219.944C257.321 220.648 255.532 221 253.42 221H243.608V190.112H253.244C256.324 190.112 258.641 190.831 260.196 192.268C261.78 193.676 262.572 195.509 262.572 197.768C262.572 199.733 262.044 201.332 260.988 202.564C259.932 203.767 258.583 204.588 256.94 205.028ZM245.588 204.148H253.332C255.649 204.148 257.424 203.605 258.656 202.52C259.917 201.405 260.548 199.88 260.548 197.944C260.548 196.067 259.932 194.585 258.7 193.5C257.468 192.415 255.605 191.872 253.112 191.872H245.588V204.148ZM253.288 219.284C255.781 219.284 257.732 218.697 259.14 217.524C260.577 216.321 261.296 214.679 261.296 212.596C261.296 210.543 260.563 208.915 259.096 207.712C257.659 206.48 255.679 205.864 253.156 205.864H245.588V219.284H253.288ZM287.994 197.108L274.09 232.22H272.066L276.51 221L266.478 197.108H268.634L277.61 218.8L285.97 197.108H287.994Z" fill="#FBFBFB"/>
<path d="M381.795 189.052H381.295V189.552V191.873C379.019 189.572 375.85 188.191 371.784 188.191C363.303 188.191 356.358 195.536 356.358 204.958C356.358 214.38 363.303 221.727 371.784 221.727C375.85 221.727 379.019 220.346 381.295 218.044V220.363V220.863H381.795H389.719H390.219V220.363V189.552V189.052H389.719H381.795ZM373.268 213.148C368.695 213.148 365.29 209.862 365.29 204.958C365.29 200.053 368.685 196.77 373.268 196.77C375.603 196.77 377.606 197.603 379.025 199.026C380.443 200.449 381.305 202.49 381.305 204.958C381.305 207.425 380.441 209.466 379.021 210.89C377.601 212.314 375.598 213.148 373.268 213.148Z" fill="#FBFBFB" stroke="url(#paint1_linear_1408_364)"/>
<path d="M403.601 233.185H404.101V232.685V218.064C406.368 220.397 409.49 221.727 413.551 221.727C422.091 221.727 429.042 214.383 429.042 204.958C429.042 195.532 422.091 188.191 413.551 188.191C409.49 188.191 406.368 189.521 404.101 191.853V189.552V189.052H403.601H395.677H395.177V189.552V232.685V233.185H395.677H403.601ZM412.077 213.148C407.504 213.148 404.101 209.862 404.101 204.958C404.101 200.053 407.504 196.77 412.077 196.77C414.412 196.77 416.416 197.603 417.835 199.026C419.254 200.449 420.116 202.49 420.116 204.958C420.116 207.425 419.254 209.467 417.835 210.89C416.416 212.314 414.412 213.148 412.077 213.148Z" fill="#FBFBFB" stroke="url(#paint2_linear_1408_364)"/>
<path d="M447.519 188.191C438.211 188.191 430.802 195.499 430.802 204.958C430.802 214.416 438.213 221.727 447.519 221.727C456.823 221.727 464.29 214.42 464.29 204.958C464.29 195.495 456.821 188.191 447.519 188.191ZM447.519 212.962C443.131 212.962 439.726 209.677 439.726 204.958C439.726 200.238 443.13 196.955 447.519 196.955C451.969 196.955 455.371 200.242 455.371 204.958C455.371 209.673 451.969 212.962 447.519 212.962Z" fill="#FBFBFB" stroke="url(#paint3_linear_1408_364)"/>
<path d="M485.424 188.441C482.042 188.438 478.598 189.705 476.59 192.764V189.552V189.052H476.09H468.155H467.655V189.552V220.363V220.863H468.155H476.09H476.59V220.363V205.636C476.59 202.556 477.821 200.638 479.491 199.528C481.186 198.401 483.392 198.07 485.364 198.307L485.924 198.374V197.81V188.941V188.442L485.424 188.441Z" fill="#FBFBFB" stroke="url(#paint4_linear_1408_364)"/>
<path d="M492.729 175.558L492.729 175.558H492.724C489.797 175.558 487.371 178.07 487.371 180.988C487.371 183.968 489.78 186.387 492.754 186.387C495.729 186.387 498.138 183.968 498.138 180.988H498.138L498.138 180.982C498.106 178.001 495.705 175.59 492.729 175.558Z" fill="#FBFBFB" stroke="url(#paint5_linear_1408_364)"/>
<path d="M488.794 189.052H488.294V189.552V220.363V220.863H488.794H496.718H497.218V220.363V189.552V189.052H496.718H488.794Z" fill="#FBFBFB" stroke="url(#paint6_linear_1408_364)"/>
<path d="M526.077 189.052H525.577V189.552V191.873C523.301 189.572 520.132 188.191 516.065 188.191C507.585 188.191 500.639 195.536 500.639 204.958C500.639 214.38 507.585 221.727 516.065 221.727C520.132 221.727 523.301 220.346 525.577 218.044V220.363V220.863H526.077H534H534.5V220.363V189.552V189.052H534H526.077ZM517.539 213.148H517.208C512.803 212.993 509.562 209.749 509.562 204.963C509.562 200.059 512.966 196.776 517.539 196.776C519.875 196.776 521.878 197.608 523.297 199.032C524.715 200.455 525.577 202.496 525.577 204.963C525.577 207.431 524.716 209.471 523.297 210.893C521.878 212.316 519.875 213.148 517.539 213.148Z" fill="#FBFBFB" stroke="url(#paint7_linear_1408_364)"/>
<path d="M339.454 191.976L323.523 176L307.598 191.976C301.471 198.122 299.402 207.249 302.276 215.448C303.073 211.153 305.151 207.202 308.234 204.117L323.519 188.777L338.81 204.117C341.898 207.199 343.976 211.152 344.768 215.448C347.645 207.25 345.578 198.123 339.454 191.976Z" fill="#48CFAD"/>
<path fill-rule="evenodd" clip-rule="evenodd" d="M313.339 209.222L323.525 199.004L333.723 209.222C336.426 211.934 337.945 215.613 337.945 219.448C337.945 223.283 336.426 226.962 333.723 229.673C328.094 235.32 318.968 235.32 313.339 229.673C310.636 226.962 309.117 223.283 309.117 219.448C309.117 215.613 310.636 211.934 313.339 209.222ZM321.456 224.475C323.476 225.314 325.802 224.849 327.348 223.297V223.288C329.452 221.171 329.452 217.746 327.348 215.629C325.802 214.078 323.476 213.613 321.456 214.452C319.435 215.292 318.118 217.27 318.118 219.463C318.118 221.657 319.435 223.635 321.456 224.475Z" fill="#48CFAD"/>
<path d="M199.998 88.0012C199.998 103.465 168.659 116.001 130 116.001C91.3413 116.001 60.0024 103.465 60.0024 88.0012C60.0024 72.5359 91.3413 60 130 60C168.659 60 199.998 72.5359 199.998 88.0012Z" fill="url(#paint8_linear_1408_364)"/>
<path d="M199.998 88.0012C199.998 103.465 168.659 116.001 130 116.001C91.3413 116.001 60.0024 103.465 60.0024 88.0012C60.0024 72.5359 91.3413 60 130 60C168.659 60 199.998 72.5359 199.998 88.0012Z" stroke="#262A33"/>
<path d="M89.0873 160.145C77.748 157.263 67.5746 153.119 60 147.533V157.999C60 165.587 67.5731 172.457 79.8297 177.502C81.8057 171.102 84.9904 165.237 89.0877 160.145H89.0873Z" fill="url(#paint9_linear_1408_364)"/>
<path d="M89.0873 160.145C77.748 157.263 67.5746 153.119 60 147.533V157.999C60 165.587 67.5731 172.457 79.8297 177.502C81.8057 171.102 84.9904 165.237 89.0877 160.145H89.0873Z" stroke="#262A33"/>
<path d="M170.913 160.142C175.014 165.241 178.193 171.106 180.168 177.504C192.426 172.459 199.997 165.589 199.997 158.002V147.536C192.428 153.12 182.255 157.261 170.913 160.142Z" fill="url(#paint10_linear_1408_364)"/>
<path d="M170.913 160.142C175.014 165.241 178.193 171.106 180.168 177.504C192.426 172.459 199.997 165.589 199.997 158.002V147.536C192.428 153.12 182.255 157.261 170.913 160.142Z" stroke="#262A33"/>
<path d="M130 130C103.653 130 76.09 124.388 60.0024 112.537V123.003C60.0024 134.479 77.2832 144.33 101.988 148.65C110.101 143.516 119.693 140.5 130.001 140.5C140.317 140.5 149.901 143.516 158.015 148.65C182.72 144.33 200 134.48 200 123.003V112.537C183.916 124.388 156.339 130 130.002 130H130Z" fill="url(#paint11_linear_1408_364)"/>
<path d="M130 130C103.653 130 76.09 124.388 60.0024 112.537V123.003C60.0024 134.479 77.2832 144.33 101.988 148.65C110.101 143.516 119.693 140.5 130.001 140.5C140.317 140.5 149.901 143.516 158.015 148.65C182.72 144.33 200 134.48 200 123.003V112.537C183.916 124.388 156.339 130 130.002 130H130Z" stroke="#262A33"/>
<path d="M173.748 199.999L159.75 179L145.749 199.999H153.363C150.337 210.099 141.086 217.501 129.998 217.501C124.023 217.501 118.631 215.277 114.379 211.729L108.556 220.474C114.495 225.113 121.877 228 129.999 228C146.931 228 161.048 215.974 164.294 199.999L173.748 199.999Z" fill="url(#paint12_linear_1408_364)"/>
<path d="M173.748 199.999L159.75 179L145.749 199.999H153.363C150.337 210.099 141.086 217.501 129.998 217.501C124.023 217.501 118.631 215.277 114.379 211.729L108.556 220.474C114.495 225.113 121.877 228 129.999 228C146.931 228 161.048 215.974 164.294 199.999L173.748 199.999Z" stroke="#262A33"/>
<path d="M130 158C113.068 158 98.9509 170.026 95.7049 186.002H86.2507L100.249 207.001L114.25 186.002H106.635C109.662 175.903 118.921 168.5 130 168.5C135.975 168.5 141.367 170.724 145.619 174.272L151.442 165.527C145.511 160.885 138.126 158.001 129.999 158.001L130 158Z" fill="url(#paint13_linear_1408_364)"/>
<path d="M130 158C113.068 158 98.9509 170.026 95.7049 186.002H86.2507L100.249 207.001L114.25 186.002H106.635C109.662 175.903 118.921 168.5 130 168.5C135.975 168.5 141.367 170.724 145.619 174.272L151.442 165.527C145.511 160.885 138.126 158.001 129.999 158.001L130 158Z" stroke="#262A33"/>
<defs>
<linearGradient id="paint0_linear_1408_364" x1="0" y1="0" x2="150.627" y2="533.47" gradientUnits="userSpaceOnUse">
<stop stop-color="#1C2128"/>
<stop offset="1" stop-color="#4B5058"/>
</linearGradient>
<linearGradient id="paint1_linear_1408_364" x1="342.893" y1="202.819" x2="402.453" y2="202.819" gradientUnits="userSpaceOnUse">
<stop stop-color="#262B33"/>
<stop offset="0.497794" stop-color="#34383F"/>
<stop offset="1" stop-color="#262B33"/>
</linearGradient>
<linearGradient id="paint2_linear_1408_364" x1="381.71" y1="207.795" x2="441.277" y2="207.795" gradientUnits="userSpaceOnUse">
<stop stop-color="#262B33"/>
<stop offset="0.497794" stop-color="#34383F"/>
<stop offset="1" stop-color="#262B33"/>
</linearGradient>
<linearGradient id="paint3_linear_1408_364" x1="417.494" y1="202.819" x2="476.379" y2="202.819" gradientUnits="userSpaceOnUse">
<stop stop-color="#262B33"/>
<stop offset="0.497794" stop-color="#34383F"/>
<stop offset="1" stop-color="#262B33"/>
</linearGradient>
<linearGradient id="paint4_linear_1408_364" x1="460.816" y1="202.586" x2="492.115" y2="202.586" gradientUnits="userSpaceOnUse">
<stop stop-color="#262B33"/>
<stop offset="0.497794" stop-color="#34383F"/>
<stop offset="1" stop-color="#262B33"/>
</linearGradient>
<linearGradient id="paint5_linear_1408_364" x1="483.72" y1="180.326" x2="501.422" y2="180.326" gradientUnits="userSpaceOnUse">
<stop stop-color="#262B33"/>
<stop offset="0.497794" stop-color="#34383F"/>
<stop offset="1" stop-color="#262B33"/>
</linearGradient>
<linearGradient id="paint6_linear_1408_364" x1="485.426" y1="202.932" x2="499.788" y2="202.932" gradientUnits="userSpaceOnUse">
<stop stop-color="#262B33"/>
<stop offset="0.497794" stop-color="#34383F"/>
<stop offset="1" stop-color="#262B33"/>
</linearGradient>
<linearGradient id="paint7_linear_1408_364" x1="487.173" y1="202.819" x2="546.734" y2="202.819" gradientUnits="userSpaceOnUse">
<stop stop-color="#262B33"/>
<stop offset="0.497794" stop-color="#34383F"/>
<stop offset="1" stop-color="#262B33"/>
</linearGradient>
<linearGradient id="paint8_linear_1408_364" x1="130" y1="60" x2="130" y2="116.001" gradientUnits="userSpaceOnUse">
<stop stop-color="#48CFAD"/>
<stop offset="1" stop-color="#48CFAD" stop-opacity="0.8"/>
</linearGradient>
<linearGradient id="paint9_linear_1408_364" x1="74.5439" y1="147.533" x2="74.5439" y2="177.502" gradientUnits="userSpaceOnUse">
<stop stop-color="#48CFAD"/>
<stop offset="1" stop-color="#48CFAD" stop-opacity="0.8"/>
</linearGradient>
<linearGradient id="paint10_linear_1408_364" x1="185.455" y1="147.536" x2="185.455" y2="177.504" gradientUnits="userSpaceOnUse">
<stop stop-color="#48CFAD"/>
<stop offset="1" stop-color="#48CFAD" stop-opacity="0.8"/>
</linearGradient>
<linearGradient id="paint11_linear_1408_364" x1="130.001" y1="112.537" x2="130.001" y2="148.65" gradientUnits="userSpaceOnUse">
<stop stop-color="#48CFAD"/>
<stop offset="1" stop-color="#48CFAD" stop-opacity="0.8"/>
</linearGradient>
<linearGradient id="paint12_linear_1408_364" x1="141.152" y1="179" x2="141.152" y2="228" gradientUnits="userSpaceOnUse">
<stop stop-color="#48CFAD"/>
<stop offset="1" stop-color="#48CFAD" stop-opacity="0.8"/>
</linearGradient>
<linearGradient id="paint13_linear_1408_364" x1="118.846" y1="158" x2="118.846" y2="207.001" gradientUnits="userSpaceOnUse">
<stop stop-color="#48CFAD"/>
<stop offset="1" stop-color="#48CFAD" stop-opacity="0.8"/>
</linearGradient>
</defs>
</svg>
